PathFileType	4	(X/Y/Z)	TVC_26_BWA4_walk_RCNL2025.trc
DataRate	CameraRate	NumFrames	NumMarkers	Units	OrigDataRate	OrigDataStartFrame	OrigNumFrames
100	100	6	27	mm	100	208	415
Frame#	Time	R_Shoulder			L_Shoulder			C7			J_Notch			R_Elbow			L_Elbow			R_Wrist			L_Wrist			R_Asis			L_Asis			R_Psis			L_Psis			Sacral			Thoracic			Sternum			R_Thigh_Lateral			R_Knee_Lateral			R_Shank_Lateral			R_Ankle_Lateral			R_Heel			R_Toe			L_Thigh_Lateral			L_Knee_Lateral			L_Shank_Lateral			L_Ankle_Lateral			L_Heel			L_Toe		
		X1	Y1	Z1	X2	Y2	Z2	X3	Y3	Z3	X4	Y4	Z4	X5	Y5	Z5	X6	Y6	Z6	X7	Y7	Z7	X8	Y8	Z8	X9	Y9	Z9	X10	Y10	Z10	X11	Y11	Z11	X12	Y12	Z12	X13	Y13	Z13	X14	Y14	Z14	X15	Y15	Z15	X16	Y16	Z16	X17	Y17	Z17	X18	Y18	Z18	X19	Y19	Z19	X20	Y20	Z20	X21	Y21	Z21	X22	Y22	Z22	X23	Y23	Z23	X24	Y24	Z24	X25	Y25	Z25	X26	Y26	Z26	X27	Y27	Z27
208	2.07000000	329.472473	1356.367310	-206.267746	309.116577	1359.987549	-526.513000	245.913895	1396.410278	-355.775513	393.544647	1300.969604	-361.892853	273.835358	1020.652344	-89.021294	265.567352	1034.803589	-633.053894	292.853653	812.962433	-33.152331	410.554001	862.824615	-595.475739	420.635223	955.909912	-193.640778	402.983459	943.379395	-484.415253	203.287094	950.655579	-253.542572	198.979309	941.255188	-401.302399	201.133202	945.955383	-327.422485	190.501328	1116.287476	-350.481720	447.424835	1065.888306	-368.863770	440.579224	568.341736	-169.800354	473.512329	452.991211	-241.008881	451.022400	267.493744	-203.850357	419.997070	72.339455	-274.919464	368.172394	55.411591	-321.158417	552.348755	44.201984	-306.042603	342.023956	572.422424	-501.514587	287.481415	459.373260	-428.309021	164.149078	272.776459	-431.685852	71.434624	111.206566	-323.772766	32.731781	123.040535	-265.969727	191.191513	39.213642	-313.840576
209	2.08000000	334.921631	1357.724365	-207.374481	314.089844	1360.989136	-527.525452	251.105942	1397.442627	-356.798187	398.842529	1302.152344	-363.006653	281.785828	1021.544617	-89.759895	270.837372	1035.777222	-633.996155	303.068024	813.949280	-34.300582	416.432404	864.365692	-596.461212	426.064087	957.379578	-194.476212	407.796570	945.188049	-485.407623	208.818390	951.887573	-254.015640	204.209946	942.283386	-401.801392	206.514168	947.085480	-327.908516	195.785873	1117.307373	-351.085449	452.582581	1067.161987	-369.600616	437.569031	567.990479	-169.850266	473.686859	452.937164	-240.983276	450.230072	267.441284	-203.695023	419.891571	72.346695	-274.992340	368.072601	55.359867	-321.243927	552.217712	44.257065	-306.078400	350.916168	573.794434	-505.330658	297.831757	459.386597	-433.208832	171.204849	274.753021	-435.255768	75.363014	116.070045	-326.221130	37.346184	129.731277	-268.401886	191.850906	39.243649	-314.622009
210	2.09000000	340.330719	1359.040161	-208.479324	318.984711	1361.969482	-528.535217	256.254852	1398.448975	-357.807648	404.096344	1303.306763	-364.128998	289.843903	1022.411072	-90.453712	276.022400	1036.713623	-634.928894	313.606964	814.965729	-35.443225	422.296997	865.933044	-597.439911	431.480408	958.740845	-195.381348	412.501862	946.893555	-486.398193	214.303299	953.096802	-254.484238	209.361221	943.256348	-402.290802	211.832260	948.176575	-328.387520	201.016144	1118.303101	-351.679840	457.684418	1068.368896	-370.342560	434.956970	567.854980	-169.938675	473.934662	452.925964	-240.965271	449.839996	267.380432	-203.565750	419.769775	72.326508	-275.053314	367.967407	55.309525	-321.314667	552.093994	44.277428	-306.084686	359.775024	575.078430	-509.426392	308.717041	459.233215	-438.365723	179.035477	276.532623	-439.010193	79.914284	121.099792	-328.885101	42.703243	136.581223	-271.001343	192.823120	39.415756	-315.787140
211	2.10000000	345.707611	1360.295166	-209.583893	323.809448	1362.916138	-529.545105	261.366730	1399.418457	-358.805206	409.309906	1304.418457	-365.262329	298.004425	1023.239502	-91.106926	281.127106	1037.600098	-635.853271	324.464966	816.006104	-36.591290	428.145126	867.505920	-598.411926	436.882874	959.965210	-196.366272	417.110260	948.441467	-487.373688	219.727432	954.272217	-254.957001	214.428024	944.162842	-402.778137	217.077728	949.217529	-328.867569	206.190826	1119.266724	-352.269806	462.733948	1069.488037	-371.104095	433.109070	567.940491	-170.095505	474.326904	452.945740	-240.987778	449.909027	267.309296	-203.506042	419.648560	72.284904	-275.105103	367.868500	55.270294	-321.372192	551.986877	44.268223	-306.071259	368.585236	576.242432	-513.728882	320.133728	458.914307	-443.703644	187.677765	278.076324	-442.904541	85.174011	126.217537	-331.757050	48.888378	143.443985	-273.741058	194.286591	39.776772	-317.505280
212	2.11000000	351.061737	1361.472778	-210.690567	328.573730	1363.818970	-530.558228	266.448425	1400.342773	-359.792969	414.487549	1305.474731	-366.409454	306.262695	1024.020264	-91.724815	286.157288	1038.426270	-636.770630	335.635010	817.067352	-37.757104	433.973282	869.064148	-599.377563	442.266724	961.029785	-197.437500	421.633148	949.785278	-488.325287	225.075943	955.404724	-255.442657	219.405243	944.995728	-403.271088	222.240593	950.200226	-329.356873	211.308853	1120.192871	-352.860168	467.734497	1070.501587	-371.900330	432.272461	568.216125	-170.320786	474.905945	452.981384	-241.073441	450.427521	267.227264	-203.541290	419.541595	72.228416	-275.151306	367.785004	55.249653	-321.419952	551.902039	44.236183	-306.046204	377.346802	577.277771	-518.165527	332.062317	458.450470	-449.146240	197.143906	279.379333	-446.901154	91.232117	131.323471	-334.836609	55.981647	150.140198	-276.599670	196.455261	40.363457	-319.954956
213	2.12000000	356.403687	1362.560059	-211.802338	333.288177	1364.669678	-531.578125	271.507141	1401.215942	-360.773468	419.634003	1306.465332	-367.573395	314.614410	1024.746826	-92.313812	291.119751	1039.184082	-637.682251	347.108414	818.148956	-38.954226	439.776810	870.588715	-600.337372	447.623871	961.918518	-198.597458	426.081787	950.889832	-489.249786	230.334717	956.487244	-255.949890	224.288071	945.751953	-403.777008	227.311394	951.119598	-329.863449	216.369476	1121.078857	-353.455688	472.689178	1071.396484	-372.746063	432.583588	568.627563	-170.597351	475.689758	453.017517	-241.235458	451.331482	267.134857	-203.678650	419.459015	72.163712	-275.195831	367.723236	55.252602	-321.462860	551.841675	44.188538	-306.015381	386.071930	578.200623	-522.669739	344.464172	457.884155	-454.621674	207.418777	280.471649	-450.972382	98.180130	136.297180	-338.132263	64.055283	156.465332	-279.565186	199.568619	41.194168	-323.305878
